<svg width="85" height="23" viewBox="0 0 85 23" fill="none" xmlns="http://www.w3.org/2000/svg">
<path d="M83.5444 0.75L83.5112 1.0293L83.2095 3.55469L83.1831 3.77441H76.9116V10.5791H82.6079V11.7705H76.9116V19.2656H84.2817L84.2485 19.5459L83.9468 22.0703L83.9204 22.291H73.2622V0.75H83.5444Z" fill="#EB5D44" stroke="white" stroke-width="0.5"/>
<path d="M52.0798 0.75L52.1306 0.932617L57.4177 19.7607L62.6736 0.932617L62.7244 0.75H69.0613V22.291H65.4119V4.01367L60.1384 22.1104L60.0857 22.291H54.7185L54.6658 22.1104L49.3923 4.01074V22.291H45.7429V0.75H52.0798Z" fill="#EB5D44" stroke="white" stroke-width="0.5"/>
<path d="M38.6179 0.75L38.6658 0.939453L43.9597 21.9795L44.0378 22.291H40.2019L40.157 22.0977L38.6277 15.5879H32.488L30.9265 22.0986L30.8796 22.291H27.1794L27.2576 21.9795L32.5515 0.939453L32.5994 0.75H38.6179ZM32.7751 14.3965H38.3425L35.573 2.59863L32.7751 14.3965Z" fill="#EB5D44" stroke="white" stroke-width="0.5"/>
<path d="M18.4304 0.75C20.8846 0.750056 22.6126 1.39283 23.7283 2.44922C24.8452 3.5068 25.3142 4.9469 25.3142 6.4707C25.3142 7.96033 24.814 9.06041 24.0427 9.86035C23.4427 10.4826 22.6871 10.9117 21.9011 11.21C22.4358 11.5123 22.8238 11.9818 23.1121 12.4902C23.5063 13.1857 23.7315 13.981 23.8982 14.5791H23.8972L26.0085 21.9717L26.0994 22.291H22.3962L22.3445 22.1094L20.0662 14.1748C19.7629 13.1322 19.5201 12.6604 19.2224 12.4268C18.9325 12.1993 18.5463 12.1611 17.7937 12.1611H16.7029V22.291H13.0535V0.75H18.4304ZM16.7029 10.9697H18.1287C19.4651 10.9697 20.305 10.5604 20.8191 9.91406C21.3419 9.25653 21.5642 8.30902 21.5642 7.16211C21.5642 5.53968 21.1096 4.6907 20.4958 4.23242C19.8661 3.76233 19.0092 3.65433 18.0955 3.6543H16.7029V10.9697Z" fill="#EB5D44" stroke="white" stroke-width="0.5"/>
<path d="M11.0322 0.75L10.999 1.0293L10.6973 3.55469L10.6709 3.77441H4.39941V11.1797H10.0957V12.3711H4.39941V22.291H0.75V0.75H11.0322Z" fill="#EB5D44" stroke="white" stroke-width="0.5"/>
</svg>
